<svg id="Capa_1" enable-background="new 0 0 512 512" height="512" viewBox="0 0 512 512" width="512" xmlns="http://www.w3.org/2000/svg"><g><g><path d="m190 378.36c0-14.363 3.282-28.945 10-42.36 6.58-13.15 10-27.66 10-42.36v-17.64h60v-40h-60v-60c0-22.09-17.91-40-40-40h40v-106c0-11.05-8.95-20-20-20h-40c-22.09 0-40 17.91-40 40v243.64c0 14.7 3.42 29.21 10 42.36 6.365 12.71 10 27.205 10 42.36v103.64c0 11.05 8.95 20 20 20h80c0-22.09-17.91-40-40-40 0-17.4 0-66.2 0-83.64z" fill="#ffda8f"/><path d="m10 136v160h100c0-3.797 0-155.299 0-160-32.019 0-68.558 0-100 0z" fill="#8690a6"/><g fill="#eefaff"><path d="m210 50v86c-22.09 0-40-17.91-40-40v-46z"/><path d="m10 176h60v40h-60z"/></g></g><g><circle cx="502" cy="156" r="10"/><circle cx="502" cy="236" r="10"/><circle cx="502" cy="316" r="10"/><path d="m10 306h30v70c0 16.542 13.458 30 30 30s30-13.458 30-30c0-5.514 4.486-10 10-10h9.091c.603 4.084.909 8.218.909 12.36v103.64c0 16.542 13.458 30 30 30h80c5.522 0 10-4.477 10-10 0-24.146-17.206-44.349-40-48.996v-74.644c0-4.14.307-8.273.91-12.36h29.09c27.57 0 50-22.43 50-50 0-14.275 0-55.755 0-70h18c5.522 0 10-4.477 10-10s-4.478-10-10-10c-20.185 0-62.523 0-78 0v-50c0-11.247-3.735-21.637-10.027-30h.027c5.522 0 10-4.477 10-10v-106c0-16.542-13.458-30-30-30h-40c-27.57 0-50 22.43-50 50v76h-40v-46h10c5.522 0 10-4.477 10-10s-4.478-10-10-10h-40c-5.522 0-10 4.477-10 10s4.478 10 10 10h10v46h-30c-5.522 0-10 4.477-10 10v160c0 5.523 4.478 10 10 10zm10-120h40v20h-40zm60 190c0 5.514-4.486 10-10 10s-10-4.486-10-10v-70h40.743c1.433 11.974 4.926 23.708 10.315 34.478.905 1.808 1.738 3.652 2.51 5.522h-3.568c-16.542 0-30 13.458-30 30zm111.059-44.478c-7.288 14.55-11.059 30.681-11.059 46.838v27.64h-40v-27.64c0-15.631-3.537-31.82-11.057-46.835-5.85-11.692-8.943-24.792-8.943-37.885v-17.667c8.363 6.292 18.753 10.027 30 10.027h50v7.64c0 13.093-3.093 26.193-8.941 37.882zm27.227 160.478h-68.286c-5.514 0-10-4.486-10-10v-56h40v36c0 5.523 4.478 10 10 10 13.037 0 24.159 8.359 28.286 20zm11.714-146h-23.569c.773-1.87 1.606-3.716 2.512-5.525 7.234-14.456 11.057-30.651 11.057-46.835v-7.64h40v30c0 16.542-13.458 30-30 30zm-30-170v50h-10c-5.514 0-10-4.486-10-10v-40c0-5.523-4.478-10-10-10s-10 4.477-10 10v40c0 16.542 13.458 30 30 30h70v20h-110c-16.542 0-30-13.458-30-30 0-11.27 0-80.349 0-90h50c16.542 0 30 13.458 30 30zm-20-80v-36h20v64.28c-11.639-4.128-20-15.244-20-28.28zm-60-46c0-16.542 13.458-30 30-30h40c5.514 0 10 4.486 10 10v10h-30c-5.522 0-10 4.477-10 10v46c0 11.247 3.735 21.637 10.027 30h-50.027zm-20 96v140h-80v-60h50c5.522 0 10-4.477 10-10v-40c0-5.523-4.478-10-10-10h-50v-20z"/><path d="m376 244 80 60c4.392 3.294 10.666 2.445 14-2 3.313-4.418 2.418-10.687-2-14l-56-42h50c5.522 0 10-4.477 10-10s-4.478-10-10-10h-50l56-42c4.418-3.313 5.313-9.582 2-14s-9.581-5.314-14-2l-80 60c-2.518 1.889-4 4.853-4 8s1.482 6.111 4 8z"/><circle cx="343" cy="236" r="10"/></g></g></svg>