<svg id="Capa_1" enable-background="new 0 0 512 512" height="512" viewBox="0 0 512 512" width="512" xmlns="http://www.w3.org/2000/svg"><g><g><path d="m512 117.29v179.09c0 50.31-40.94 91.25-91.25 91.25h-82.02l-70.82 92.45c-5.993 7.83-17.819 7.839-23.82 0l-70.82-92.45h-82.02c-50.31 0-91.25-40.94-91.25-91.25v-179.09c0-50.31 40.94-91.25 91.25-91.25h329.5c50.31 0 91.25 40.94 91.25 91.25z" fill="#ffe14d"/></g><path d="m512 117.29v179.09c0 50.31-40.94 91.25-91.25 91.25h-82.02l-70.82 92.45c-2.84 3.71-7.24 5.88-11.91 5.88v-459.92h164.75c50.31 0 91.25 40.94 91.25 91.25z" fill="#fabe2c"/><path d="m363.17 219.56-90.76 90.76c-9.013 9.013-23.709 9.1-32.81 0l-90.77-90.76c-25.38-25.38-25.38-66.52 0-91.9 12.69-12.69 29.32-19.04 45.95-19.04s33.26 6.35 45.94 19.04c14.715 14.704 12.906 12.896 15.28 15.27l.01.01 15.27-15.27c25.37-25.38 66.52-25.38 91.89-.01 25.366 25.366 25.381 66.519 0 91.9z" fill="#ff4d4d"/><path d="m363.17 219.56-90.76 90.76c-4.53 4.53-10.47 6.79-16.41 6.79v-174.18l.01.01 15.27-15.27c25.37-25.38 66.52-25.38 91.89-.01 25.366 25.366 25.381 66.519 0 91.9z" fill="#cd0000"/></g></svg>