<svg id="Capa_1" enable-background="new 0 0 512 512" height="512" viewBox="0 0 512 512" width="512" xmlns="http://www.w3.org/2000/svg"><g><path d="m140.966 326.745 111.284 64.25c1.16.67 2.455 1.005 3.75 1.005s2.59-.335 3.75-1.005l111.284-64.25c2.32-1.34 3.75-3.815 3.75-6.495v-128.5c0-2.68-1.43-5.155-3.75-6.495l-111.284-64.25c-2.32-1.34-5.18-1.34-7.5 0l-111.284 64.25c-2.32 1.34-3.75 3.815-3.75 6.495v128.5c0 2.68 1.43 5.155 3.75 6.495zm11.25-122.005 96.284 55.59v111.18l-96.284-55.59zm103.784 42.6-96.284-55.59 40.642-23.465 96.284 55.59zm7.5 124.17v-111.18l96.284-55.59v111.18zm-7.5-235.35 96.284 55.59-40.642 23.465-96.284-55.59z"/><path d="m341.034 261.793c-2.32-1.34-5.18-1.34-7.5 0l-51.284 29.609c-2.32 1.34-3.75 3.815-3.75 6.495v34.641c0 2.68 1.43 5.155 3.75 6.495 1.16.67 2.455 1.005 3.75 1.005s2.59-.335 3.75-1.005l51.284-29.609c2.32-1.34 3.75-3.815 3.75-6.495v-34.641c0-2.679-1.43-5.155-3.75-6.495zm-11.25 36.807-36.284 20.948v-17.321l36.284-20.949z"/><path d="m454.736 310.326v-108.652c17.721-8.441 30-26.523 30-47.424 0-28.949-23.551-52.5-52.5-52.5-11.062 0-21.33 3.448-29.803 9.313l-94.118-54.339c.112-1.395.185-2.8.185-4.223 0-28.95-23.551-52.501-52.5-52.501s-52.5 23.551-52.5 52.5c0 1.423.073 2.829.185 4.223l-94.118 54.339c-8.473-5.865-18.741-9.313-29.803-9.313-28.949 0-52.5 23.551-52.5 52.5 0 20.901 12.279 38.983 30 47.424v108.652c-17.721 8.441-30 26.523-30 47.424 0 28.949 23.551 52.5 52.5 52.5 11.062 0 21.33-3.448 29.803-9.313l94.118 54.339c-.112 1.395-.185 2.8-.185 4.223 0 28.949 23.551 52.5 52.5 52.5s52.5-23.551 52.5-52.5c0-1.423-.073-2.829-.185-4.223l94.118-54.339c8.473 5.865 18.741 9.313 29.803 9.313 28.949 0 52.5-23.551 52.5-52.5 0-20.9-12.279-38.982-30-47.423zm-15-4.532c-2.451-.352-4.953-.544-7.5-.544s-5.049.192-7.5.544v-99.588c2.451.352 4.953.544 7.5.544s5.049-.192 7.5-.544zm30-151.544c0 20.678-16.822 37.5-37.5 37.5s-37.5-16.822-37.5-37.5 16.822-37.5 37.5-37.5 37.5 16.822 37.5 37.5zm-78.718-32.458c-3.091 3.917-5.635 8.28-7.52 12.979l-86.28-49.814c3.091-3.917 5.635-8.28 7.52-12.979zm-135.018-106.792c20.678 0 37.5 16.822 37.5 37.5s-16.822 37.5-37.5 37.5-37.5-16.822-37.5-37.5 16.822-37.5 37.5-37.5zm-41.215 69.962-86.281 49.815c-1.885-4.702-4.43-9.067-7.522-12.985l86.28-49.814c1.886 4.702 4.431 9.067 7.523 12.984zm-172.521 69.288c0-20.678 16.822-37.5 37.5-37.5s37.5 16.822 37.5 37.5-16.822 37.5-37.5 37.5-37.5-16.822-37.5-37.5zm30 51.956c2.451.352 4.953.544 7.5.544s5.049-.192 7.5-.544v34.794c0 4.142 3.358 7.5 7.5 7.5s7.5-3.358 7.5-7.5v-39.326c17.721-8.441 30-26.523 30-47.424 0-1.421-.073-2.824-.184-4.216l94.123-54.343c8.471 5.863 18.737 9.309 29.797 9.309 11.062 0 21.33-3.448 29.803-9.313l94.118 54.339c-.112 1.395-.185 2.8-.185 4.223 0 20.901 12.279 38.983 30 47.424v108.652c-17.721 8.441-30 26.523-30 47.424 0 1.423.073 2.828.185 4.223l-94.119 54.339c-8.472-5.863-18.74-9.311-29.802-9.311s-21.33 3.448-29.803 9.313l-94.118-54.339c.112-1.395.185-2.8.185-4.223 0-20.901-12.279-38.983-30-47.424v-39.327c0-4.142-3.358-7.5-7.5-7.5s-7.5 3.358-7.5 7.5v34.794c-2.451-.352-4.953-.544-7.5-.544s-5.049.192-7.5.544zm-30 151.544c0-20.678 16.822-37.5 37.5-37.5s37.5 16.822 37.5 37.5-16.822 37.5-37.5 37.5-37.5-16.822-37.5-37.5zm78.718 32.458c3.091-3.917 5.635-8.28 7.52-12.979l86.28 49.814c-3.091 3.917-5.635 8.28-7.52 12.979zm135.018 106.792c-20.678 0-37.5-16.822-37.5-37.5s16.822-37.5 37.5-37.5 37.5 16.822 37.5 37.5-16.822 37.5-37.5 37.5zm41.218-69.958 86.28-49.814c1.885 4.699 4.429 9.063 7.52 12.979l-86.28 49.814c-1.885-4.699-4.429-9.062-7.52-12.979zm135.018-31.792c-20.678 0-37.5-16.822-37.5-37.5s16.822-37.5 37.5-37.5 37.5 16.822 37.5 37.5-16.822 37.5-37.5 37.5z"/></g></svg>